<mxfile host="65bd71144e">
    <diagram id="pokxu0jWR_smdaCql7I5" name="MVC">
        <mxGraphModel dx="964" dy="864" grid="0" gridSize="10" guides="1" tooltips="1" connect="1" arrows="1" fold="1" page="1" pageScale="1" pageWidth="827" pageHeight="1169" background="#ffffff" math="0" shadow="0">
            <root>
                <mxCell id="0"/>
                <mxCell id="1" parent="0"/>
                <mxCell id="8" value="GET" style="whiteSpace=wrap;html=1;labelBorderColor=none;fillColor=#fad7ac;strokeColor=#b46504;fontStyle=1;shadow=0;sketch=0;strokeWidth=2;fontColor=#000000;" parent="1" vertex="1">
                    <mxGeometry x="241" y="265" width="120" height="30" as="geometry"/>
                </mxCell>
                <mxCell id="11" value="POST" style="whiteSpace=wrap;html=1;fontSize=14;fillColor=#fad7ac;strokeColor=#b46504;fontStyle=1;shadow=0;sketch=0;strokeWidth=2;fontColor=#000000;" parent="1" vertex="1">
                    <mxGeometry x="241" y="315" width="120" height="30" as="geometry"/>
                </mxCell>
                <mxCell id="12" value="PUT" style="whiteSpace=wrap;html=1;fontSize=14;fillColor=#fad7ac;strokeColor=#b46504;fontStyle=1;shadow=0;sketch=0;strokeWidth=2;fontColor=#000000;" parent="1" vertex="1">
                    <mxGeometry x="241" y="365" width="120" height="30" as="geometry"/>
                </mxCell>
                <mxCell id="13" value="DELETE" style="whiteSpace=wrap;html=1;fontSize=14;fillColor=#fad7ac;strokeColor=#b46504;fontStyle=1;shadow=0;sketch=0;strokeWidth=2;fontColor=#000000;" parent="1" vertex="1">
                    <mxGeometry x="241" y="415" width="120" height="30" as="geometry"/>
                </mxCell>
                <mxCell id="18" value="API" style="whiteSpace=wrap;html=1;aspect=fixed;fillColor=#fad7ac;strokeColor=#b46504;fontStyle=1;shadow=0;sketch=0;strokeWidth=2;fontColor=#000000;" parent="1" vertex="1">
                    <mxGeometry x="61" y="307" width="95" height="95" as="geometry"/>
                </mxCell>
                <mxCell id="19" value="" style="endArrow=classic;startArrow=classic;html=1;exitX=1;exitY=0.25;exitDx=0;exitDy=0;entryX=0;entryY=0.5;entryDx=0;entryDy=0;fillColor=#fad7ac;strokeColor=#b46504;fontColor=#000000;fontStyle=1;shadow=0;sketch=0;strokeWidth=2;" parent="1" source="18" target="8" edge="1">
                    <mxGeometry width="50" height="50" relative="1" as="geometry">
                        <mxPoint x="451" y="350" as="sourcePoint"/>
                        <mxPoint x="501" y="300" as="targetPoint"/>
                    </mxGeometry>
                </mxCell>
                <mxCell id="20" value="" style="endArrow=classic;startArrow=classic;html=1;entryX=0;entryY=0.5;entryDx=0;entryDy=0;exitX=0.991;exitY=0.416;exitDx=0;exitDy=0;exitPerimeter=0;fillColor=#fad7ac;strokeColor=#b46504;fontColor=#000000;fontStyle=1;shadow=0;sketch=0;strokeWidth=2;" parent="1" source="18" target="11" edge="1">
                    <mxGeometry width="50" height="50" relative="1" as="geometry">
                        <mxPoint x="171" y="340" as="sourcePoint"/>
                        <mxPoint x="251" y="290" as="targetPoint"/>
                    </mxGeometry>
                </mxCell>
                <mxCell id="21" value="" style="endArrow=classic;startArrow=classic;html=1;entryX=0;entryY=0.5;entryDx=0;entryDy=0;exitX=0.997;exitY=0.58;exitDx=0;exitDy=0;exitPerimeter=0;fillColor=#fad7ac;strokeColor=#b46504;fontColor=#000000;fontStyle=1;shadow=0;sketch=0;strokeWidth=2;" parent="1" source="18" target="12" edge="1">
                    <mxGeometry width="50" height="50" relative="1" as="geometry">
                        <mxPoint x="171" y="370" as="sourcePoint"/>
                        <mxPoint x="251" y="340" as="targetPoint"/>
                    </mxGeometry>
                </mxCell>
                <mxCell id="22" value="" style="endArrow=classic;startArrow=classic;html=1;entryX=0;entryY=0.5;entryDx=0;entryDy=0;exitX=1;exitY=0.75;exitDx=0;exitDy=0;fillColor=#fad7ac;strokeColor=#b46504;fontColor=#000000;fontStyle=1;shadow=0;sketch=0;strokeWidth=2;" parent="1" source="18" target="13" edge="1">
                    <mxGeometry width="50" height="50" relative="1" as="geometry">
                        <mxPoint x="166" y="373.64150943396226" as="sourcePoint"/>
                        <mxPoint x="251" y="390" as="targetPoint"/>
                    </mxGeometry>
                </mxCell>
                <mxCell id="27" value="SEARCH ALL/ID" style="whiteSpace=wrap;html=1;fontSize=14;fillColor=#fad7ac;strokeColor=#b46504;fontStyle=1;shadow=0;sketch=0;strokeWidth=2;fontColor=#000000;" parent="1" vertex="1">
                    <mxGeometry x="441" y="265" width="160" height="30" as="geometry"/>
                </mxCell>
                <mxCell id="28" value="REGISTER" style="whiteSpace=wrap;html=1;fontSize=14;fillColor=#fad7ac;strokeColor=#b46504;fontStyle=1;shadow=0;sketch=0;strokeWidth=2;fontColor=#000000;" parent="1" vertex="1">
                    <mxGeometry x="441" y="315" width="160" height="30" as="geometry"/>
                </mxCell>
                <mxCell id="29" value="UPDATE ID" style="whiteSpace=wrap;html=1;fontSize=14;fillColor=#fad7ac;strokeColor=#b46504;fontStyle=1;shadow=0;sketch=0;strokeWidth=2;fontColor=#000000;" parent="1" vertex="1">
                    <mxGeometry x="441" y="365" width="160" height="30" as="geometry"/>
                </mxCell>
                <mxCell id="30" value="DELETE ID" style="whiteSpace=wrap;html=1;fontSize=14;fillColor=#fad7ac;strokeColor=#b46504;fontStyle=1;shadow=0;sketch=0;strokeWidth=2;fontColor=#000000;" parent="1" vertex="1">
                    <mxGeometry x="441" y="415" width="160" height="30" as="geometry"/>
                </mxCell>
                <mxCell id="31" value="" style="endArrow=classic;startArrow=classic;html=1;exitX=1;exitY=0.5;exitDx=0;exitDy=0;entryX=0;entryY=0.5;entryDx=0;entryDy=0;fillColor=#fad7ac;strokeColor=#b46504;fontColor=#000000;fontStyle=1;shadow=0;sketch=0;strokeWidth=2;" parent="1" source="8" target="27" edge="1">
                    <mxGeometry width="50" height="50" relative="1" as="geometry">
                        <mxPoint x="381" y="290" as="sourcePoint"/>
                        <mxPoint x="431" y="240" as="targetPoint"/>
                    </mxGeometry>
                </mxCell>
                <mxCell id="32" value="" style="endArrow=classic;startArrow=classic;html=1;entryX=0;entryY=0.5;entryDx=0;entryDy=0;exitX=1;exitY=0.5;exitDx=0;exitDy=0;fillColor=#fad7ac;strokeColor=#b46504;fontColor=#000000;fontStyle=1;shadow=0;sketch=0;strokeWidth=2;" parent="1" source="11" target="28" edge="1">
                    <mxGeometry width="50" height="50" relative="1" as="geometry">
                        <mxPoint x="381" y="330" as="sourcePoint"/>
                        <mxPoint x="421" y="329" as="targetPoint"/>
                    </mxGeometry>
                </mxCell>
                <mxCell id="34" value="" style="endArrow=classic;startArrow=classic;html=1;entryX=0;entryY=0.5;entryDx=0;entryDy=0;exitX=1;exitY=0.5;exitDx=0;exitDy=0;fillColor=#fad7ac;strokeColor=#b46504;fontColor=#000000;fontStyle=1;shadow=0;sketch=0;strokeWidth=2;" parent="1" source="12" target="29" edge="1">
                    <mxGeometry width="50" height="50" relative="1" as="geometry">
                        <mxPoint x="381" y="390" as="sourcePoint"/>
                        <mxPoint x="421" y="379" as="targetPoint"/>
                    </mxGeometry>
                </mxCell>
                <mxCell id="35" value="" style="endArrow=classic;startArrow=classic;html=1;exitX=1;exitY=0.5;exitDx=0;exitDy=0;entryX=0;entryY=0.5;entryDx=0;entryDy=0;fillColor=#fad7ac;strokeColor=#b46504;fontColor=#000000;fontStyle=1;shadow=0;sketch=0;strokeWidth=2;" parent="1" source="13" target="30" edge="1">
                    <mxGeometry width="50" height="50" relative="1" as="geometry">
                        <mxPoint x="371" y="450.38" as="sourcePoint"/>
                        <mxPoint x="431" y="450" as="targetPoint"/>
                    </mxGeometry>
                </mxCell>
                <mxCell id="43" value="ORM" style="whiteSpace=wrap;html=1;aspect=fixed;fontSize=14;fontStyle=1;fillColor=#fad7ac;strokeColor=#b46504;shadow=0;sketch=0;strokeWidth=2;fontColor=#000000;" parent="1" vertex="1">
                    <mxGeometry x="681" y="307" width="95" height="95" as="geometry"/>
                </mxCell>
                <mxCell id="44" value="" style="endArrow=classic;startArrow=classic;html=1;exitX=1;exitY=0.5;exitDx=0;exitDy=0;entryX=0;entryY=0.25;entryDx=0;entryDy=0;fillColor=#fad7ac;strokeColor=#b46504;fontColor=#000000;fontStyle=1;shadow=0;sketch=0;strokeWidth=2;" parent="1" source="27" target="43" edge="1">
                    <mxGeometry width="50" height="50" relative="1" as="geometry">
                        <mxPoint x="661" y="400" as="sourcePoint"/>
                        <mxPoint x="711" y="350" as="targetPoint"/>
                    </mxGeometry>
                </mxCell>
                <mxCell id="45" value="" style="endArrow=classic;startArrow=classic;html=1;exitX=1;exitY=0.5;exitDx=0;exitDy=0;entryX=0;entryY=0.75;entryDx=0;entryDy=0;fillColor=#fad7ac;strokeColor=#b46504;fontColor=#000000;fontStyle=1;shadow=0;sketch=0;strokeWidth=2;" parent="1" source="30" target="43" edge="1">
                    <mxGeometry width="50" height="50" relative="1" as="geometry">
                        <mxPoint x="661" y="400" as="sourcePoint"/>
                        <mxPoint x="711" y="350" as="targetPoint"/>
                    </mxGeometry>
                </mxCell>
                <mxCell id="46" value="" style="endArrow=classic;startArrow=classic;html=1;exitX=1;exitY=0.5;exitDx=0;exitDy=0;entryX=0.007;entryY=0.609;entryDx=0;entryDy=0;entryPerimeter=0;fillColor=#fad7ac;strokeColor=#b46504;fontColor=#000000;fontStyle=1;shadow=0;sketch=0;strokeWidth=2;" parent="1" source="29" target="43" edge="1">
                    <mxGeometry width="50" height="50" relative="1" as="geometry">
                        <mxPoint x="661" y="400" as="sourcePoint"/>
                        <mxPoint x="711" y="350" as="targetPoint"/>
                    </mxGeometry>
                </mxCell>
                <mxCell id="47" value="" style="endArrow=classic;startArrow=classic;html=1;exitX=1;exitY=0.5;exitDx=0;exitDy=0;entryX=-0.002;entryY=0.432;entryDx=0;entryDy=0;entryPerimeter=0;fillColor=#fad7ac;strokeColor=#b46504;fontColor=#000000;fontStyle=1;shadow=0;sketch=0;strokeWidth=2;" parent="1" source="28" target="43" edge="1">
                    <mxGeometry width="50" height="50" relative="1" as="geometry">
                        <mxPoint x="661" y="400" as="sourcePoint"/>
                        <mxPoint x="681" y="350" as="targetPoint"/>
                    </mxGeometry>
                </mxCell>
                <mxCell id="48" value="" style="endArrow=classic;startArrow=classic;html=1;exitX=0.5;exitY=1;exitDx=0;exitDy=0;entryX=0.5;entryY=0;entryDx=0;entryDy=0;fillColor=#fad7ac;strokeColor=#b46504;fontColor=#000000;fontStyle=1;shadow=0;sketch=0;strokeWidth=2;" parent="1" source="43" target="49" edge="1">
                    <mxGeometry width="50" height="50" relative="1" as="geometry">
                        <mxPoint x="661" y="380" as="sourcePoint"/>
                        <mxPoint x="729" y="480" as="targetPoint"/>
                    </mxGeometry>
                </mxCell>
                <mxCell id="53" value="" style="edgeStyle=none;html=1;fillColor=#fad7ac;strokeColor=#b46504;fontColor=#000000;fontStyle=1;shadow=0;sketch=0;strokeWidth=2;" parent="1" source="49" target="50" edge="1">
                    <mxGeometry relative="1" as="geometry"/>
                </mxCell>
                <mxCell id="49" value="MYSQL" style="whiteSpace=wrap;html=1;aspect=fixed;fontSize=14;fontStyle=1;fillColor=#fad7ac;strokeColor=#b46504;shadow=0;sketch=0;strokeWidth=2;fontColor=#000000;" parent="1" vertex="1">
                    <mxGeometry x="681" y="490" width="95" height="95" as="geometry"/>
                </mxCell>
                <mxCell id="50" value="DATABASE" style="shape=cylinder3;whiteSpace=wrap;html=1;boundedLbl=1;backgroundOutline=1;size=15;fontSize=14;fontStyle=1;fillColor=#fad7ac;strokeColor=#b46504;shadow=0;sketch=0;strokeWidth=2;fontColor=#000000;" parent="1" vertex="1">
                    <mxGeometry x="683.5" y="670" width="90" height="120" as="geometry"/>
                </mxCell>
                <mxCell id="52" value="" style="endArrow=classic;startArrow=classic;html=1;entryX=0.5;entryY=0;entryDx=0;entryDy=0;entryPerimeter=0;exitX=0.5;exitY=1;exitDx=0;exitDy=0;fillColor=#fad7ac;strokeColor=#b46504;fontColor=#000000;fontStyle=1;shadow=0;sketch=0;strokeWidth=2;" parent="1" source="49" target="50" edge="1">
                    <mxGeometry width="50" height="50" relative="1" as="geometry">
                        <mxPoint x="729" y="600" as="sourcePoint"/>
                        <mxPoint x="728" y="660" as="targetPoint"/>
                    </mxGeometry>
                </mxCell>
                <mxCell id="66" value="API" style="whiteSpace=wrap;html=1;aspect=fixed;fontSize=14;fontStyle=1;fillColor=#fad7ac;strokeColor=#b46504;shadow=0;sketch=0;strokeWidth=2;fontColor=#000000;" parent="1" vertex="1">
                    <mxGeometry x="61" y="307" width="95" height="95" as="geometry"/>
                </mxCell>
                <mxCell id="67" value="GET" style="whiteSpace=wrap;html=1;labelBorderColor=none;fontSize=14;fillColor=#fad7ac;strokeColor=#b46504;fontStyle=1;shadow=0;sketch=0;strokeWidth=2;fontColor=#000000;" parent="1" vertex="1">
                    <mxGeometry x="241" y="265" width="120" height="30" as="geometry"/>
                </mxCell>
                <mxCell id="70" value="VIEW" style="rounded=1;whiteSpace=wrap;html=1;labelBackgroundColor=none;labelBorderColor=none;fontSize=14;fillColor=#fad7ac;strokeColor=#b46504;fontStyle=1;shadow=0;sketch=0;strokeWidth=2;fontColor=#000000;" parent="1" vertex="1">
                    <mxGeometry x="61" y="200" width="95" height="30" as="geometry"/>
                </mxCell>
                <mxCell id="71" value="CONTROLLER" style="rounded=1;whiteSpace=wrap;html=1;labelBackgroundColor=none;labelBorderColor=none;fontSize=14;fillColor=#fad7ac;strokeColor=#b46504;fontStyle=1;shadow=0;sketch=0;strokeWidth=2;fontColor=#000000;" parent="1" vertex="1">
                    <mxGeometry x="241" y="200" width="120" height="30" as="geometry"/>
                </mxCell>
                <mxCell id="72" value="MODEL" style="rounded=1;whiteSpace=wrap;html=1;labelBackgroundColor=none;labelBorderColor=none;fontSize=14;fillColor=#fad7ac;strokeColor=#b46504;fontStyle=1;shadow=0;sketch=0;strokeWidth=2;fontColor=#000000;" parent="1" vertex="1">
                    <mxGeometry x="441" y="200" width="160" height="30" as="geometry"/>
                </mxCell>
                <mxCell id="73" value="" style="endArrow=classic;startArrow=classic;html=1;fontSize=14;fontColor=#000000;entryX=0;entryY=0.5;entryDx=0;entryDy=0;exitX=1;exitY=0.5;exitDx=0;exitDy=0;fillColor=#fad7ac;strokeColor=#b46504;fontStyle=1;shadow=0;sketch=0;strokeWidth=2;" parent="1" source="70" target="71" edge="1">
                    <mxGeometry width="50" height="50" relative="1" as="geometry">
                        <mxPoint x="181" y="220" as="sourcePoint"/>
                        <mxPoint x="206" y="170" as="targetPoint"/>
                    </mxGeometry>
                </mxCell>
                <mxCell id="76" value="" style="endArrow=classic;startArrow=classic;html=1;fontSize=14;fontColor=#000000;entryX=0;entryY=0.5;entryDx=0;entryDy=0;exitX=1;exitY=0.5;exitDx=0;exitDy=0;fillColor=#fad7ac;strokeColor=#b46504;fontStyle=1;shadow=0;sketch=0;strokeWidth=2;" parent="1" source="71" target="72" edge="1">
                    <mxGeometry width="50" height="50" relative="1" as="geometry">
                        <mxPoint x="356" y="180" as="sourcePoint"/>
                        <mxPoint x="441" y="180" as="targetPoint"/>
                    </mxGeometry>
                </mxCell>
                <mxCell id="77" value="HTTP/HTTPS&lt;br&gt;REQUEST" style="whiteSpace=wrap;html=1;aspect=fixed;fontSize=14;fontStyle=1;glass=0;rounded=0;shadow=0;sketch=0;fillColor=#fad7ac;strokeColor=#b46504;strokeWidth=2;fontColor=#000000;" parent="1" vertex="1">
                    <mxGeometry x="51" y="570" width="115" height="115" as="geometry"/>
                </mxCell>
                <mxCell id="78" value="" style="endArrow=classic;startArrow=classic;html=1;fontSize=14;fontColor=#000000;exitX=0.5;exitY=0;exitDx=0;exitDy=0;entryX=0.5;entryY=1;entryDx=0;entryDy=0;fillColor=#fad7ac;strokeColor=#b46504;fontStyle=1;shadow=0;sketch=0;strokeWidth=2;" parent="1" source="77" target="66" edge="1">
                    <mxGeometry width="50" height="50" relative="1" as="geometry">
                        <mxPoint x="91" y="520" as="sourcePoint"/>
                        <mxPoint x="141" y="470" as="targetPoint"/>
                    </mxGeometry>
                </mxCell>
                <mxCell id="79" value="MVC&amp;nbsp;&lt;span style=&quot;font-family: inherit; font-size: 28px; text-align: left;&quot;&gt;ARCHITECTURE&lt;/span&gt;" style="text;html=1;align=center;verticalAlign=middle;resizable=0;points=[];autosize=1;fontSize=29;fontStyle=1;shadow=0;sketch=0;fillColor=none;strokeWidth=2;fontColor=#000000;labelBackgroundColor=none;" parent="1" vertex="1">
                    <mxGeometry x="263" y="81" width="303" height="40" as="geometry"/>
                </mxCell>
            </root>
        </mxGraphModel>
    </diagram>
    <diagram id="XvkulzWEni_uIZeilYMJ" name="API">
        <mxGraphModel dx="909" dy="604" grid="1" gridSize="10" guides="1" tooltips="1" connect="1" arrows="1" fold="1" page="1" pageScale="1" pageWidth="827" pageHeight="1169" background="#ffffff" math="0" shadow="0">
            <root>
                <mxCell id="QiYFh1cCA7qM9-oHBsOp-0"/>
                <mxCell id="QiYFh1cCA7qM9-oHBsOp-1" parent="QiYFh1cCA7qM9-oHBsOp-0"/>
                <mxCell id="te17GGw_Y70cWQSBXi0h-0" value="API" style="whiteSpace=wrap;html=1;aspect=fixed;fontSize=14;fontStyle=1;fillColor=#fad7ac;strokeColor=#b46504;shadow=0;sketch=0;strokeWidth=2;fontColor=#000000;" vertex="1" parent="QiYFh1cCA7qM9-oHBsOp-1">
                    <mxGeometry x="23" y="537.5" width="95" height="95" as="geometry"/>
                </mxCell>
                <mxCell id="1YU1PfP42-Fur1H9TSOj-0" value="/Clientes" style="whiteSpace=wrap;html=1;aspect=fixed;fontSize=14;fontStyle=1;fillColor=#fad7ac;strokeColor=#b46504;shadow=0;sketch=0;strokeWidth=2;fontColor=#000000;" vertex="1" parent="QiYFh1cCA7qM9-oHBsOp-1">
                    <mxGeometry x="163" y="707.5" width="85" height="85" as="geometry"/>
                </mxCell>
                <mxCell id="1YU1PfP42-Fur1H9TSOj-1" value="/Produtos" style="whiteSpace=wrap;html=1;aspect=fixed;fontSize=14;fontStyle=1;fillColor=#fad7ac;strokeColor=#b46504;shadow=0;sketch=0;strokeWidth=2;fontColor=#000000;" vertex="1" parent="QiYFh1cCA7qM9-oHBsOp-1">
                    <mxGeometry x="163" y="377.5" width="85" height="85" as="geometry"/>
                </mxCell>
                <mxCell id="1YU1PfP42-Fur1H9TSOj-4" value="" style="curved=1;endArrow=classic;html=1;fontColor=#000000;strokeColor=#B46504;exitX=0.5;exitY=1;exitDx=0;exitDy=0;entryX=0;entryY=0.5;entryDx=0;entryDy=0;strokeWidth=2;" edge="1" parent="QiYFh1cCA7qM9-oHBsOp-1" source="te17GGw_Y70cWQSBXi0h-0" target="1YU1PfP42-Fur1H9TSOj-0">
                    <mxGeometry width="50" height="50" relative="1" as="geometry">
                        <mxPoint x="443" y="667.5" as="sourcePoint"/>
                        <mxPoint x="493" y="617.5" as="targetPoint"/>
                        <Array as="points">
                            <mxPoint x="71" y="677.5"/>
                            <mxPoint x="103" y="737.5"/>
                        </Array>
                    </mxGeometry>
                </mxCell>
                <mxCell id="1YU1PfP42-Fur1H9TSOj-5" value="" style="curved=1;endArrow=classic;html=1;fontColor=#000000;strokeColor=#B46504;exitX=0.421;exitY=0;exitDx=0;exitDy=0;entryX=0;entryY=0.5;entryDx=0;entryDy=0;exitPerimeter=0;strokeWidth=2;" edge="1" parent="QiYFh1cCA7qM9-oHBsOp-1" source="te17GGw_Y70cWQSBXi0h-0" target="1YU1PfP42-Fur1H9TSOj-1">
                    <mxGeometry width="50" height="50" relative="1" as="geometry">
                        <mxPoint x="70.5" y="377.5" as="sourcePoint"/>
                        <mxPoint x="163" y="495" as="targetPoint"/>
                        <Array as="points">
                            <mxPoint x="63" y="427.5"/>
                        </Array>
                    </mxGeometry>
                </mxCell>
                <mxCell id="V3D2Iq7v9LdpgytZ4xGP-33" style="edgeStyle=none;html=1;entryX=0;entryY=0.5;entryDx=0;entryDy=0;fontSize=14;fontColor=#000000;strokeColor=#B46504;strokeWidth=2;" edge="1" parent="QiYFh1cCA7qM9-oHBsOp-1" source="V3D2Iq7v9LdpgytZ4xGP-7" target="V3D2Iq7v9LdpgytZ4xGP-30">
                    <mxGeometry relative="1" as="geometry"/>
                </mxCell>
                <mxCell id="V3D2Iq7v9LdpgytZ4xGP-7" value="GET /" style="rounded=0;whiteSpace=wrap;html=1;labelBackgroundColor=none;strokeColor=#B46504;strokeWidth=2;imageHeight=26;fillColor=#FAD7AC;fontSize=13;fontColor=#000000;fontStyle=1" vertex="1" parent="QiYFh1cCA7qM9-oHBsOp-1">
                    <mxGeometry x="323" y="305" width="90" height="30" as="geometry"/>
                </mxCell>
                <mxCell id="V3D2Iq7v9LdpgytZ4xGP-35" style="edgeStyle=none;html=1;entryX=0;entryY=0.5;entryDx=0;entryDy=0;fontSize=14;fontColor=#000000;strokeColor=#B46504;strokeWidth=2;" edge="1" parent="QiYFh1cCA7qM9-oHBsOp-1" source="V3D2Iq7v9LdpgytZ4xGP-8" target="V3D2Iq7v9LdpgytZ4xGP-34">
                    <mxGeometry relative="1" as="geometry"/>
                </mxCell>
                <mxCell id="V3D2Iq7v9LdpgytZ4xGP-8" value="GET /:id" style="rounded=0;whiteSpace=wrap;html=1;labelBackgroundColor=none;strokeColor=#B46504;strokeWidth=2;imageHeight=26;fillColor=#FAD7AC;fontSize=13;fontColor=#000000;fontStyle=1" vertex="1" parent="QiYFh1cCA7qM9-oHBsOp-1">
                    <mxGeometry x="323" y="355" width="90" height="30" as="geometry"/>
                </mxCell>
                <mxCell id="V3D2Iq7v9LdpgytZ4xGP-37" style="edgeStyle=none;html=1;entryX=0;entryY=0.5;entryDx=0;entryDy=0;fontSize=14;fontColor=#000000;strokeColor=#B46504;strokeWidth=2;" edge="1" parent="QiYFh1cCA7qM9-oHBsOp-1" source="V3D2Iq7v9LdpgytZ4xGP-9" target="V3D2Iq7v9LdpgytZ4xGP-36">
                    <mxGeometry relative="1" as="geometry"/>
                </mxCell>
                <mxCell id="V3D2Iq7v9LdpgytZ4xGP-9" value="POST /" style="rounded=0;whiteSpace=wrap;html=1;labelBackgroundColor=none;strokeColor=#B46504;strokeWidth=2;imageHeight=26;fillColor=#FAD7AC;fontSize=13;fontColor=#000000;fontStyle=1" vertex="1" parent="QiYFh1cCA7qM9-oHBsOp-1">
                    <mxGeometry x="323" y="405" width="90" height="30" as="geometry"/>
                </mxCell>
                <mxCell id="V3D2Iq7v9LdpgytZ4xGP-39" style="edgeStyle=none;html=1;entryX=0;entryY=0.5;entryDx=0;entryDy=0;fontSize=12;fontColor=#000000;strokeColor=#B46504;strokeWidth=2;" edge="1" parent="QiYFh1cCA7qM9-oHBsOp-1" source="V3D2Iq7v9LdpgytZ4xGP-10" target="V3D2Iq7v9LdpgytZ4xGP-38">
                    <mxGeometry relative="1" as="geometry"/>
                </mxCell>
                <mxCell id="V3D2Iq7v9LdpgytZ4xGP-10" value="PUT /:id" style="rounded=0;whiteSpace=wrap;html=1;labelBackgroundColor=none;strokeColor=#B46504;strokeWidth=2;imageHeight=26;fillColor=#FAD7AC;fontSize=13;fontColor=#000000;fontStyle=1" vertex="1" parent="QiYFh1cCA7qM9-oHBsOp-1">
                    <mxGeometry x="323" y="455" width="90" height="30" as="geometry"/>
                </mxCell>
                <mxCell id="V3D2Iq7v9LdpgytZ4xGP-41" style="edgeStyle=none;html=1;entryX=0;entryY=0.5;entryDx=0;entryDy=0;fontSize=12;fontColor=#000000;strokeColor=#B46504;strokeWidth=2;" edge="1" parent="QiYFh1cCA7qM9-oHBsOp-1" source="V3D2Iq7v9LdpgytZ4xGP-11" target="V3D2Iq7v9LdpgytZ4xGP-40">
                    <mxGeometry relative="1" as="geometry"/>
                </mxCell>
                <mxCell id="V3D2Iq7v9LdpgytZ4xGP-11" value="DELETE /:id" style="rounded=0;whiteSpace=wrap;html=1;labelBackgroundColor=none;strokeColor=#B46504;strokeWidth=2;imageHeight=26;fillColor=#FAD7AC;fontSize=13;fontColor=#000000;fontStyle=1" vertex="1" parent="QiYFh1cCA7qM9-oHBsOp-1">
                    <mxGeometry x="323" y="505" width="90" height="30" as="geometry"/>
                </mxCell>
                <mxCell id="V3D2Iq7v9LdpgytZ4xGP-12" value="" style="endArrow=classic;html=1;fontSize=13;fontColor=#000000;strokeColor=#B46504;strokeWidth=2;entryX=0;entryY=0.5;entryDx=0;entryDy=0;exitX=1;exitY=0.25;exitDx=0;exitDy=0;" edge="1" parent="QiYFh1cCA7qM9-oHBsOp-1" source="1YU1PfP42-Fur1H9TSOj-1" target="V3D2Iq7v9LdpgytZ4xGP-7">
                    <mxGeometry width="50" height="50" relative="1" as="geometry">
                        <mxPoint x="263" y="377.5" as="sourcePoint"/>
                        <mxPoint x="298" y="345" as="targetPoint"/>
                    </mxGeometry>
                </mxCell>
                <mxCell id="V3D2Iq7v9LdpgytZ4xGP-13" value="" style="endArrow=classic;html=1;fontSize=13;fontColor=#000000;strokeColor=#B46504;strokeWidth=2;entryX=0;entryY=0.5;entryDx=0;entryDy=0;exitX=0.997;exitY=0.388;exitDx=0;exitDy=0;exitPerimeter=0;" edge="1" parent="QiYFh1cCA7qM9-oHBsOp-1" source="1YU1PfP42-Fur1H9TSOj-1" target="V3D2Iq7v9LdpgytZ4xGP-8">
                    <mxGeometry width="50" height="50" relative="1" as="geometry">
                        <mxPoint x="253" y="407.5" as="sourcePoint"/>
                        <mxPoint x="333" y="330" as="targetPoint"/>
                    </mxGeometry>
                </mxCell>
                <mxCell id="V3D2Iq7v9LdpgytZ4xGP-14" value="" style="endArrow=classic;html=1;fontSize=13;fontColor=#000000;strokeColor=#B46504;strokeWidth=2;entryX=0;entryY=0.5;entryDx=0;entryDy=0;" edge="1" parent="QiYFh1cCA7qM9-oHBsOp-1" target="V3D2Iq7v9LdpgytZ4xGP-11">
                    <mxGeometry width="50" height="50" relative="1" as="geometry">
                        <mxPoint x="248" y="441.5" as="sourcePoint"/>
                        <mxPoint x="297.65999999999997" y="447.5" as="targetPoint"/>
                    </mxGeometry>
                </mxCell>
                <mxCell id="V3D2Iq7v9LdpgytZ4xGP-15" value="" style="endArrow=classic;html=1;fontSize=13;fontColor=#000000;strokeColor=#B46504;strokeWidth=2;entryX=0;entryY=0.5;entryDx=0;entryDy=0;exitX=1.005;exitY=0.608;exitDx=0;exitDy=0;exitPerimeter=0;" edge="1" parent="QiYFh1cCA7qM9-oHBsOp-1" source="1YU1PfP42-Fur1H9TSOj-1" target="V3D2Iq7v9LdpgytZ4xGP-10">
                    <mxGeometry width="50" height="50" relative="1" as="geometry">
                        <mxPoint x="278.34000000000003" y="422.20500000000004" as="sourcePoint"/>
                        <mxPoint x="353" y="350" as="targetPoint"/>
                    </mxGeometry>
                </mxCell>
                <mxCell id="V3D2Iq7v9LdpgytZ4xGP-16" value="" style="endArrow=classic;html=1;fontSize=13;fontColor=#000000;strokeColor=#B46504;strokeWidth=2;entryX=0;entryY=0.5;entryDx=0;entryDy=0;exitX=1;exitY=0.5;exitDx=0;exitDy=0;" edge="1" parent="QiYFh1cCA7qM9-oHBsOp-1" source="1YU1PfP42-Fur1H9TSOj-1" target="V3D2Iq7v9LdpgytZ4xGP-9">
                    <mxGeometry width="50" height="50" relative="1" as="geometry">
                        <mxPoint x="288.34000000000003" y="432.20500000000004" as="sourcePoint"/>
                        <mxPoint x="363" y="360" as="targetPoint"/>
                    </mxGeometry>
                </mxCell>
                <mxCell id="V3D2Iq7v9LdpgytZ4xGP-55" style="edgeStyle=none;html=1;entryX=0;entryY=0.5;entryDx=0;entryDy=0;fontSize=12;fontColor=#000000;strokeColor=#B46504;strokeWidth=2;" edge="1" parent="QiYFh1cCA7qM9-oHBsOp-1" source="V3D2Iq7v9LdpgytZ4xGP-17" target="V3D2Iq7v9LdpgytZ4xGP-44">
                    <mxGeometry relative="1" as="geometry"/>
                </mxCell>
                <mxCell id="V3D2Iq7v9LdpgytZ4xGP-17" value="GET /" style="rounded=0;whiteSpace=wrap;html=1;labelBackgroundColor=none;strokeColor=#B46504;strokeWidth=2;imageHeight=26;fillColor=#FAD7AC;fontSize=13;fontColor=#000000;fontStyle=1" vertex="1" parent="QiYFh1cCA7qM9-oHBsOp-1">
                    <mxGeometry x="323" y="635" width="90" height="30" as="geometry"/>
                </mxCell>
                <mxCell id="V3D2Iq7v9LdpgytZ4xGP-54" style="edgeStyle=none;html=1;entryX=0;entryY=0.5;entryDx=0;entryDy=0;fontSize=12;fontColor=#000000;strokeColor=#B46504;strokeWidth=2;" edge="1" parent="QiYFh1cCA7qM9-oHBsOp-1" source="V3D2Iq7v9LdpgytZ4xGP-18" target="V3D2Iq7v9LdpgytZ4xGP-45">
                    <mxGeometry relative="1" as="geometry"/>
                </mxCell>
                <mxCell id="V3D2Iq7v9LdpgytZ4xGP-18" value="GET /:id" style="rounded=0;whiteSpace=wrap;html=1;labelBackgroundColor=none;strokeColor=#B46504;strokeWidth=2;imageHeight=26;fillColor=#FAD7AC;fontSize=13;fontColor=#000000;fontStyle=1" vertex="1" parent="QiYFh1cCA7qM9-oHBsOp-1">
                    <mxGeometry x="323" y="685" width="90" height="30" as="geometry"/>
                </mxCell>
                <mxCell id="V3D2Iq7v9LdpgytZ4xGP-53" style="edgeStyle=none;html=1;entryX=0;entryY=0.5;entryDx=0;entryDy=0;fontSize=12;fontColor=#000000;strokeColor=#B46504;strokeWidth=2;" edge="1" parent="QiYFh1cCA7qM9-oHBsOp-1" source="V3D2Iq7v9LdpgytZ4xGP-19" target="V3D2Iq7v9LdpgytZ4xGP-46">
                    <mxGeometry relative="1" as="geometry"/>
                </mxCell>
                <mxCell id="V3D2Iq7v9LdpgytZ4xGP-19" value="POST /" style="rounded=0;whiteSpace=wrap;html=1;labelBackgroundColor=none;strokeColor=#B46504;strokeWidth=2;imageHeight=26;fillColor=#FAD7AC;fontSize=13;fontColor=#000000;fontStyle=1" vertex="1" parent="QiYFh1cCA7qM9-oHBsOp-1">
                    <mxGeometry x="323" y="735" width="90" height="30" as="geometry"/>
                </mxCell>
                <mxCell id="V3D2Iq7v9LdpgytZ4xGP-51" style="edgeStyle=none;html=1;fontSize=12;fontColor=#000000;strokeColor=#B46504;strokeWidth=2;" edge="1" parent="QiYFh1cCA7qM9-oHBsOp-1" source="V3D2Iq7v9LdpgytZ4xGP-20" target="V3D2Iq7v9LdpgytZ4xGP-47">
                    <mxGeometry relative="1" as="geometry"/>
                </mxCell>
                <mxCell id="V3D2Iq7v9LdpgytZ4xGP-20" value="PUT /:id" style="rounded=0;whiteSpace=wrap;html=1;labelBackgroundColor=none;strokeColor=#B46504;strokeWidth=2;imageHeight=26;fillColor=#FAD7AC;fontSize=13;fontColor=#000000;fontStyle=1" vertex="1" parent="QiYFh1cCA7qM9-oHBsOp-1">
                    <mxGeometry x="323" y="785" width="90" height="30" as="geometry"/>
                </mxCell>
                <mxCell id="V3D2Iq7v9LdpgytZ4xGP-49" value="" style="edgeStyle=none;html=1;fontSize=12;fontColor=#000000;strokeColor=#B46504;strokeWidth=2;" edge="1" parent="QiYFh1cCA7qM9-oHBsOp-1" source="V3D2Iq7v9LdpgytZ4xGP-21" target="V3D2Iq7v9LdpgytZ4xGP-48">
                    <mxGeometry relative="1" as="geometry"/>
                </mxCell>
                <mxCell id="V3D2Iq7v9LdpgytZ4xGP-21" value="DELETE /:id" style="rounded=0;whiteSpace=wrap;html=1;labelBackgroundColor=none;strokeColor=#B46504;strokeWidth=2;imageHeight=26;fillColor=#FAD7AC;fontSize=13;fontColor=#000000;fontStyle=1" vertex="1" parent="QiYFh1cCA7qM9-oHBsOp-1">
                    <mxGeometry x="323" y="835" width="90" height="30" as="geometry"/>
                </mxCell>
                <mxCell id="V3D2Iq7v9LdpgytZ4xGP-22" value="" style="endArrow=classic;html=1;fontSize=13;fontColor=#000000;strokeColor=#B46504;strokeWidth=2;entryX=0;entryY=0.5;entryDx=0;entryDy=0;exitX=1;exitY=0.25;exitDx=0;exitDy=0;" edge="1" parent="QiYFh1cCA7qM9-oHBsOp-1" target="V3D2Iq7v9LdpgytZ4xGP-17" source="1YU1PfP42-Fur1H9TSOj-0">
                    <mxGeometry width="50" height="50" relative="1" as="geometry">
                        <mxPoint x="248" y="717.5" as="sourcePoint"/>
                        <mxPoint x="298" y="675" as="targetPoint"/>
                    </mxGeometry>
                </mxCell>
                <mxCell id="V3D2Iq7v9LdpgytZ4xGP-23" value="" style="endArrow=classic;html=1;fontSize=13;fontColor=#000000;strokeColor=#B46504;strokeWidth=2;entryX=0;entryY=0.5;entryDx=0;entryDy=0;exitX=1.008;exitY=0.378;exitDx=0;exitDy=0;exitPerimeter=0;" edge="1" parent="QiYFh1cCA7qM9-oHBsOp-1" target="V3D2Iq7v9LdpgytZ4xGP-18" source="1YU1PfP42-Fur1H9TSOj-0">
                    <mxGeometry width="50" height="50" relative="1" as="geometry">
                        <mxPoint x="248" y="728.75" as="sourcePoint"/>
                        <mxPoint x="333" y="660" as="targetPoint"/>
                    </mxGeometry>
                </mxCell>
                <mxCell id="V3D2Iq7v9LdpgytZ4xGP-24" value="" style="endArrow=classic;html=1;fontSize=13;fontColor=#000000;strokeColor=#B46504;strokeWidth=2;entryX=0;entryY=0.5;entryDx=0;entryDy=0;exitX=1;exitY=0.75;exitDx=0;exitDy=0;" edge="1" parent="QiYFh1cCA7qM9-oHBsOp-1" target="V3D2Iq7v9LdpgytZ4xGP-21" source="1YU1PfP42-Fur1H9TSOj-0">
                    <mxGeometry width="50" height="50" relative="1" as="geometry">
                        <mxPoint x="263" y="797.5" as="sourcePoint"/>
                        <mxPoint x="297.65999999999997" y="777.5" as="targetPoint"/>
                    </mxGeometry>
                </mxCell>
                <mxCell id="V3D2Iq7v9LdpgytZ4xGP-25" value="" style="endArrow=classic;html=1;fontSize=13;fontColor=#000000;strokeColor=#B46504;strokeWidth=2;entryX=0;entryY=0.5;entryDx=0;entryDy=0;exitX=0.997;exitY=0.595;exitDx=0;exitDy=0;exitPerimeter=0;" edge="1" parent="QiYFh1cCA7qM9-oHBsOp-1" target="V3D2Iq7v9LdpgytZ4xGP-20" source="1YU1PfP42-Fur1H9TSOj-0">
                    <mxGeometry width="50" height="50" relative="1" as="geometry">
                        <mxPoint x="263" y="767.5" as="sourcePoint"/>
                        <mxPoint x="353" y="680" as="targetPoint"/>
                    </mxGeometry>
                </mxCell>
                <mxCell id="V3D2Iq7v9LdpgytZ4xGP-26" value="" style="endArrow=classic;html=1;fontSize=13;fontColor=#000000;strokeColor=#B46504;strokeWidth=2;entryX=0;entryY=0.5;entryDx=0;entryDy=0;exitX=1;exitY=0.5;exitDx=0;exitDy=0;" edge="1" parent="QiYFh1cCA7qM9-oHBsOp-1" target="V3D2Iq7v9LdpgytZ4xGP-19">
                    <mxGeometry width="50" height="50" relative="1" as="geometry">
                        <mxPoint x="248" y="750" as="sourcePoint"/>
                        <mxPoint x="363" y="690" as="targetPoint"/>
                    </mxGeometry>
                </mxCell>
                <mxCell id="V3D2Iq7v9LdpgytZ4xGP-30" value="Seleciona todos os produtos cadastrados no sistema" style="text;html=1;strokeColor=none;fillColor=none;align=left;verticalAlign=middle;whiteSpace=wrap;rounded=0;labelBackgroundColor=none;fontSize=12;fontColor=#000000;" vertex="1" parent="QiYFh1cCA7qM9-oHBsOp-1">
                    <mxGeometry x="443" y="305" width="360" height="30" as="geometry"/>
                </mxCell>
                <mxCell id="V3D2Iq7v9LdpgytZ4xGP-34" value="Seleciona o produto pelo ID passado como parâmetro" style="text;html=1;strokeColor=none;fillColor=none;align=left;verticalAlign=middle;whiteSpace=wrap;rounded=0;labelBackgroundColor=none;fontSize=12;fontColor=#000000;" vertex="1" parent="QiYFh1cCA7qM9-oHBsOp-1">
                    <mxGeometry x="443" y="355" width="360" height="30" as="geometry"/>
                </mxCell>
                <mxCell id="V3D2Iq7v9LdpgytZ4xGP-36" value="Registra novo produto" style="text;html=1;strokeColor=none;fillColor=none;align=left;verticalAlign=middle;whiteSpace=wrap;rounded=0;labelBackgroundColor=none;fontSize=12;fontColor=#000000;" vertex="1" parent="QiYFh1cCA7qM9-oHBsOp-1">
                    <mxGeometry x="443" y="405" width="360" height="30" as="geometry"/>
                </mxCell>
                <mxCell id="V3D2Iq7v9LdpgytZ4xGP-38" value="Atualiza produto já cadastrado, obrigatório ID como parâmetro" style="text;html=1;strokeColor=none;fillColor=none;align=left;verticalAlign=middle;whiteSpace=wrap;rounded=0;labelBackgroundColor=none;fontSize=12;fontColor=#000000;" vertex="1" parent="QiYFh1cCA7qM9-oHBsOp-1">
                    <mxGeometry x="443" y="455" width="360" height="30" as="geometry"/>
                </mxCell>
                <mxCell id="V3D2Iq7v9LdpgytZ4xGP-40" value="Deleta produto já cadastrado, obrigatório ID como parâmetro" style="text;html=1;strokeColor=none;fillColor=none;align=left;verticalAlign=middle;whiteSpace=wrap;rounded=0;labelBackgroundColor=none;fontSize=12;fontColor=#000000;" vertex="1" parent="QiYFh1cCA7qM9-oHBsOp-1">
                    <mxGeometry x="443" y="505" width="360" height="30" as="geometry"/>
                </mxCell>
                <mxCell id="V3D2Iq7v9LdpgytZ4xGP-44" value="Seleciona todos os clientes cadastrados no sistema" style="text;html=1;strokeColor=none;fillColor=none;align=left;verticalAlign=middle;whiteSpace=wrap;rounded=0;labelBackgroundColor=none;fontSize=12;fontColor=#000000;" vertex="1" parent="QiYFh1cCA7qM9-oHBsOp-1">
                    <mxGeometry x="443" y="635" width="360" height="30" as="geometry"/>
                </mxCell>
                <mxCell id="V3D2Iq7v9LdpgytZ4xGP-45" value="Seleciona o cliente pelo ID passado como parâmetro" style="text;html=1;strokeColor=none;fillColor=none;align=left;verticalAlign=middle;whiteSpace=wrap;rounded=0;labelBackgroundColor=none;fontSize=12;fontColor=#000000;" vertex="1" parent="QiYFh1cCA7qM9-oHBsOp-1">
                    <mxGeometry x="443" y="685" width="360" height="30" as="geometry"/>
                </mxCell>
                <mxCell id="V3D2Iq7v9LdpgytZ4xGP-46" value="Registra novo Cliente" style="text;html=1;strokeColor=none;fillColor=none;align=left;verticalAlign=middle;whiteSpace=wrap;rounded=0;labelBackgroundColor=none;fontSize=12;fontColor=#000000;" vertex="1" parent="QiYFh1cCA7qM9-oHBsOp-1">
                    <mxGeometry x="443" y="735" width="360" height="30" as="geometry"/>
                </mxCell>
                <mxCell id="V3D2Iq7v9LdpgytZ4xGP-47" value="Atualiza cliente já cadastrado, obrigatório ID como parâmetro" style="text;html=1;strokeColor=none;fillColor=none;align=left;verticalAlign=middle;whiteSpace=wrap;rounded=0;labelBackgroundColor=none;fontSize=12;fontColor=#000000;" vertex="1" parent="QiYFh1cCA7qM9-oHBsOp-1">
                    <mxGeometry x="443" y="785" width="360" height="30" as="geometry"/>
                </mxCell>
                <mxCell id="V3D2Iq7v9LdpgytZ4xGP-48" value="Deleta cliente já cadastrado, obrigatório ID como parâmetro" style="text;html=1;strokeColor=none;fillColor=none;align=left;verticalAlign=middle;whiteSpace=wrap;rounded=0;labelBackgroundColor=none;fontSize=12;fontColor=#000000;" vertex="1" parent="QiYFh1cCA7qM9-oHBsOp-1">
                    <mxGeometry x="443" y="835" width="360" height="30" as="geometry"/>
                </mxCell>
            </root>
        </mxGraphModel>
    </diagram>
    <diagram name="CONTROLLER" id="JzYDvSNnQfJSf_hlojUw">
        <mxGraphModel dx="905" dy="648" grid="1" gridSize="10" guides="1" tooltips="1" connect="1" arrows="1" fold="1" page="1" pageScale="1" pageWidth="827" pageHeight="1169" background="#ffffff" math="0" shadow="0">
            <root>
                <mxCell id="urG62_j0mcIYgCaN0z9P-0"/>
                <mxCell id="urG62_j0mcIYgCaN0z9P-1" parent="urG62_j0mcIYgCaN0z9P-0"/>
                <mxCell id="urG62_j0mcIYgCaN0z9P-48" value="" style="edgeStyle=none;html=1;fontSize=12;fontColor=#000000;strokeColor=#B46504;strokeWidth=2;" parent="urG62_j0mcIYgCaN0z9P-1" source="urG62_j0mcIYgCaN0z9P-2" target="urG62_j0mcIYgCaN0z9P-47" edge="1">
                    <mxGeometry relative="1" as="geometry"/>
                </mxCell>
                <mxCell id="urG62_j0mcIYgCaN0z9P-2" value="CONTROLLER" style="whiteSpace=wrap;html=1;aspect=fixed;fontSize=14;fontStyle=1;fillColor=#fad7ac;strokeColor=#b46504;shadow=0;sketch=0;strokeWidth=2;fontColor=#000000;" parent="urG62_j0mcIYgCaN0z9P-1" vertex="1">
                    <mxGeometry x="23" y="537.5" width="117" height="117" as="geometry"/>
                </mxCell>
                <mxCell id="urG62_j0mcIYgCaN0z9P-50" value="" style="edgeStyle=none;html=1;fontSize=12;fontColor=#000000;strokeColor=#B46504;strokeWidth=2;" parent="urG62_j0mcIYgCaN0z9P-1" source="urG62_j0mcIYgCaN0z9P-47" target="urG62_j0mcIYgCaN0z9P-49" edge="1">
                    <mxGeometry relative="1" as="geometry"/>
                </mxCell>
                <mxCell id="urG62_j0mcIYgCaN0z9P-47" value="VERIFICA PARÂMETROS" style="whiteSpace=wrap;html=1;fontSize=14;fillColor=#fad7ac;strokeColor=#b46504;fontColor=#000000;fontStyle=1;shadow=0;sketch=0;strokeWidth=2;" parent="urG62_j0mcIYgCaN0z9P-1" vertex="1">
                    <mxGeometry x="218.5" y="566" width="120" height="60" as="geometry"/>
                </mxCell>
                <mxCell id="urG62_j0mcIYgCaN0z9P-49" value="COMUNICAÇÃO COM OS MODELS" style="whiteSpace=wrap;html=1;fontSize=14;fillColor=#fad7ac;strokeColor=#b46504;fontColor=#000000;fontStyle=1;shadow=0;sketch=0;strokeWidth=2;" parent="urG62_j0mcIYgCaN0z9P-1" vertex="1">
                    <mxGeometry x="418.5" y="566" width="161.5" height="60" as="geometry"/>
                </mxCell>
                <mxCell id="urG62_j0mcIYgCaN0z9P-54" value="" style="edgeStyle=none;html=1;fontSize=12;fontColor=#000000;strokeColor=#B46504;strokeWidth=2;" parent="urG62_j0mcIYgCaN0z9P-1" source="urG62_j0mcIYgCaN0z9P-51" target="urG62_j0mcIYgCaN0z9P-2" edge="1">
                    <mxGeometry relative="1" as="geometry"/>
                </mxCell>
                <mxCell id="urG62_j0mcIYgCaN0z9P-51" value="RESPONDE REQUISIÇÃO" style="whiteSpace=wrap;html=1;fontSize=14;fillColor=#fad7ac;strokeColor=#b46504;fontColor=#000000;fontStyle=1;shadow=0;sketch=0;strokeWidth=2;" parent="urG62_j0mcIYgCaN0z9P-1" vertex="1">
                    <mxGeometry x="21.5" y="720" width="120" height="60" as="geometry"/>
                </mxCell>
                <mxCell id="urG62_j0mcIYgCaN0z9P-53" value="" style="curved=1;endArrow=classic;html=1;fontSize=12;fontColor=#000000;strokeColor=#B46504;strokeWidth=2;entryX=1;entryY=0.5;entryDx=0;entryDy=0;exitX=0.5;exitY=1;exitDx=0;exitDy=0;" parent="urG62_j0mcIYgCaN0z9P-1" source="urG62_j0mcIYgCaN0z9P-49" target="urG62_j0mcIYgCaN0z9P-51" edge="1">
                    <mxGeometry width="50" height="50" relative="1" as="geometry">
                        <mxPoint x="350" y="770" as="sourcePoint"/>
                        <mxPoint x="400" y="720" as="targetPoint"/>
                        <Array as="points">
                            <mxPoint x="430" y="710"/>
                            <mxPoint x="280" y="740"/>
                        </Array>
                    </mxGeometry>
                </mxCell>
            </root>
        </mxGraphModel>
    </diagram>
    <diagram id="LvYl3o_hfWMnWapoymSn" name="MODELS">
        <mxGraphModel dx="905" dy="648" grid="1" gridSize="10" guides="1" tooltips="1" connect="1" arrows="1" fold="1" page="1" pageScale="1" pageWidth="827" pageHeight="1169" background="#ffffff" math="0" shadow="0">
            <root>
                <mxCell id="oZCVGq4v76825vz48XY7-0"/>
                <mxCell id="oZCVGq4v76825vz48XY7-1" parent="oZCVGq4v76825vz48XY7-0"/>
                <mxCell id="kZIjGotmO9zieq3WL3FH-0" value="" style="edgeStyle=none;html=1;fontSize=12;fontColor=#000000;strokeColor=#B46504;strokeWidth=2;" edge="1" parent="oZCVGq4v76825vz48XY7-1" source="kZIjGotmO9zieq3WL3FH-1" target="kZIjGotmO9zieq3WL3FH-3">
                    <mxGeometry relative="1" as="geometry"/>
                </mxCell>
                <mxCell id="kZIjGotmO9zieq3WL3FH-1" value="MODELS" style="whiteSpace=wrap;html=1;aspect=fixed;fontSize=14;fontStyle=1;fillColor=#fad7ac;strokeColor=#b46504;shadow=0;sketch=0;strokeWidth=2;fontColor=#000000;" vertex="1" parent="oZCVGq4v76825vz48XY7-1">
                    <mxGeometry x="16.5" y="463" width="117" height="117" as="geometry"/>
                </mxCell>
                <mxCell id="kZIjGotmO9zieq3WL3FH-2" value="" style="edgeStyle=none;html=1;fontSize=12;fontColor=#000000;strokeColor=#B46504;strokeWidth=2;" edge="1" parent="oZCVGq4v76825vz48XY7-1" source="kZIjGotmO9zieq3WL3FH-3" target="kZIjGotmO9zieq3WL3FH-4">
                    <mxGeometry relative="1" as="geometry"/>
                </mxCell>
                <mxCell id="vJc9xb9R0wfxGDk4Ak_M-10" value="" style="edgeStyle=none;html=1;" edge="1" parent="oZCVGq4v76825vz48XY7-1" source="kZIjGotmO9zieq3WL3FH-3">
                    <mxGeometry relative="1" as="geometry">
                        <mxPoint x="272" y="631.5" as="targetPoint"/>
                    </mxGeometry>
                </mxCell>
                <mxCell id="kZIjGotmO9zieq3WL3FH-3" value="VERIFICA DADOS" style="whiteSpace=wrap;html=1;fontSize=14;fillColor=#fad7ac;strokeColor=#b46504;fontColor=#000000;fontStyle=1;shadow=0;sketch=0;strokeWidth=2;" vertex="1" parent="oZCVGq4v76825vz48XY7-1">
                    <mxGeometry x="212" y="491.5" width="120" height="60" as="geometry"/>
                </mxCell>
                <mxCell id="tVCpiUyUOeXZ1jrFe0km-4" value="" style="edgeStyle=none;html=1;" edge="1" parent="oZCVGq4v76825vz48XY7-1" source="kZIjGotmO9zieq3WL3FH-4" target="tVCpiUyUOeXZ1jrFe0km-0">
                    <mxGeometry relative="1" as="geometry"/>
                </mxCell>
                <mxCell id="kZIjGotmO9zieq3WL3FH-4" value="COMUNICAÇÃO COM ORMS" style="whiteSpace=wrap;html=1;fontSize=14;fillColor=#fad7ac;strokeColor=#b46504;fontColor=#000000;fontStyle=1;shadow=0;sketch=0;strokeWidth=2;" vertex="1" parent="oZCVGq4v76825vz48XY7-1">
                    <mxGeometry x="412" y="491.5" width="161.5" height="60" as="geometry"/>
                </mxCell>
                <mxCell id="kZIjGotmO9zieq3WL3FH-5" value="" style="edgeStyle=none;html=1;fontSize=12;fontColor=#000000;strokeColor=#B46504;strokeWidth=2;" edge="1" parent="oZCVGq4v76825vz48XY7-1" source="kZIjGotmO9zieq3WL3FH-6" target="kZIjGotmO9zieq3WL3FH-1">
                    <mxGeometry relative="1" as="geometry"/>
                </mxCell>
                <mxCell id="kZIjGotmO9zieq3WL3FH-6" value="RESPONDE O CONTROLLER" style="whiteSpace=wrap;html=1;fontSize=14;fillColor=#fad7ac;strokeColor=#b46504;fontColor=#000000;fontStyle=1;shadow=0;sketch=0;strokeWidth=2;" vertex="1" parent="oZCVGq4v76825vz48XY7-1">
                    <mxGeometry x="15" y="645.5" width="120" height="60" as="geometry"/>
                </mxCell>
                <mxCell id="kZIjGotmO9zieq3WL3FH-7" value="" style="curved=1;endArrow=classic;html=1;fontSize=12;fontColor=#000000;strokeColor=#B46504;strokeWidth=2;entryX=0.5;entryY=1;entryDx=0;entryDy=0;exitX=0.5;exitY=1;exitDx=0;exitDy=0;" edge="1" parent="oZCVGq4v76825vz48XY7-1" source="vJc9xb9R0wfxGDk4Ak_M-5" target="kZIjGotmO9zieq3WL3FH-6">
                    <mxGeometry width="50" height="50" relative="1" as="geometry">
                        <mxPoint x="580" y="750" as="sourcePoint"/>
                        <mxPoint x="393.5" y="645.5" as="targetPoint"/>
                        <Array as="points">
                            <mxPoint x="480" y="800"/>
                            <mxPoint x="100" y="810"/>
                        </Array>
                    </mxGeometry>
                </mxCell>
                <mxCell id="tVCpiUyUOeXZ1jrFe0km-0" value="ORM" style="whiteSpace=wrap;html=1;fontSize=14;fillColor=#fad7ac;strokeColor=#b46504;fontColor=#000000;fontStyle=1;shadow=0;sketch=0;strokeWidth=2;" vertex="1" parent="oZCVGq4v76825vz48XY7-1">
                    <mxGeometry x="650.5" y="491.5" width="161.5" height="60" as="geometry"/>
                </mxCell>
                <mxCell id="tVCpiUyUOeXZ1jrFe0km-3" value="" style="edgeStyle=none;html=1;fontSize=12;fontColor=#000000;strokeColor=#B46504;strokeWidth=2;exitX=1;exitY=0.5;exitDx=0;exitDy=0;entryX=0;entryY=0.5;entryDx=0;entryDy=0;" edge="1" parent="oZCVGq4v76825vz48XY7-1" source="kZIjGotmO9zieq3WL3FH-4" target="tVCpiUyUOeXZ1jrFe0km-0">
                    <mxGeometry relative="1" as="geometry">
                        <mxPoint x="590" y="521" as="sourcePoint"/>
                        <mxPoint x="630" y="521" as="targetPoint"/>
                    </mxGeometry>
                </mxCell>
                <mxCell id="tVCpiUyUOeXZ1jrFe0km-5" value="QUERYS DO BANCO DE DADOS" style="whiteSpace=wrap;html=1;fontSize=14;fillColor=#fad7ac;strokeColor=#b46504;fontColor=#000000;fontStyle=1;shadow=0;sketch=0;strokeWidth=2;" vertex="1" parent="oZCVGq4v76825vz48XY7-1">
                    <mxGeometry x="650.5" y="380" width="161.5" height="60" as="geometry"/>
                </mxCell>
                <mxCell id="tVCpiUyUOeXZ1jrFe0km-7" value="" style="edgeStyle=none;html=1;fontSize=12;fontColor=#000000;strokeColor=#B46504;strokeWidth=2;exitX=0.5;exitY=0;exitDx=0;exitDy=0;entryX=0.5;entryY=1;entryDx=0;entryDy=0;" edge="1" parent="oZCVGq4v76825vz48XY7-1" source="tVCpiUyUOeXZ1jrFe0km-0" target="tVCpiUyUOeXZ1jrFe0km-5">
                    <mxGeometry relative="1" as="geometry">
                        <mxPoint x="583.5" y="531.5" as="sourcePoint"/>
                        <mxPoint x="660.5" y="531.5" as="targetPoint"/>
                    </mxGeometry>
                </mxCell>
                <mxCell id="vJc9xb9R0wfxGDk4Ak_M-0" value="RESPONDE O CONTROLLER" style="whiteSpace=wrap;html=1;fontSize=14;fillColor=#fad7ac;strokeColor=#b46504;fontColor=#000000;fontStyle=1;shadow=0;sketch=0;strokeWidth=2;" vertex="1" parent="oZCVGq4v76825vz48XY7-1">
                    <mxGeometry x="15" y="334" width="120" height="60" as="geometry"/>
                </mxCell>
                <mxCell id="vJc9xb9R0wfxGDk4Ak_M-1" value="" style="curved=1;endArrow=classic;html=1;fontSize=12;fontColor=#000000;strokeColor=#B46504;strokeWidth=2;entryX=0.5;entryY=0;entryDx=0;entryDy=0;exitX=0.5;exitY=0;exitDx=0;exitDy=0;" edge="1" parent="oZCVGq4v76825vz48XY7-1" target="vJc9xb9R0wfxGDk4Ak_M-0" source="vJc9xb9R0wfxGDk4Ak_M-2">
                    <mxGeometry width="50" height="50" relative="1" as="geometry">
                        <mxPoint x="450" y="310" as="sourcePoint"/>
                        <mxPoint x="395" y="334" as="targetPoint"/>
                        <Array as="points">
                            <mxPoint x="272" y="280"/>
                            <mxPoint x="100" y="260"/>
                        </Array>
                    </mxGeometry>
                </mxCell>
                <mxCell id="vJc9xb9R0wfxGDk4Ak_M-2" value="ERROS" style="whiteSpace=wrap;html=1;fontSize=14;fillColor=#fad7ac;strokeColor=#b46504;fontColor=#000000;fontStyle=1;shadow=0;sketch=0;strokeWidth=2;" vertex="1" parent="oZCVGq4v76825vz48XY7-1">
                    <mxGeometry x="212" y="370" width="120" height="60" as="geometry"/>
                </mxCell>
                <mxCell id="vJc9xb9R0wfxGDk4Ak_M-3" value="" style="edgeStyle=none;html=1;fontSize=12;fontColor=#000000;strokeColor=#B46504;strokeWidth=2;entryX=0.5;entryY=0;entryDx=0;entryDy=0;exitX=0.5;exitY=1;exitDx=0;exitDy=0;" edge="1" parent="oZCVGq4v76825vz48XY7-1" source="vJc9xb9R0wfxGDk4Ak_M-0" target="kZIjGotmO9zieq3WL3FH-1">
                    <mxGeometry relative="1" as="geometry">
                        <mxPoint x="140" y="420" as="sourcePoint"/>
                        <mxPoint x="74.2900000000001" y="397.5" as="targetPoint"/>
                    </mxGeometry>
                </mxCell>
                <mxCell id="vJc9xb9R0wfxGDk4Ak_M-4" value="" style="edgeStyle=none;html=1;fontSize=12;fontColor=#000000;strokeColor=#B46504;strokeWidth=2;entryX=0.5;entryY=1;entryDx=0;entryDy=0;exitX=0.5;exitY=0;exitDx=0;exitDy=0;" edge="1" parent="oZCVGq4v76825vz48XY7-1" source="kZIjGotmO9zieq3WL3FH-3" target="vJc9xb9R0wfxGDk4Ak_M-2">
                    <mxGeometry relative="1" as="geometry">
                        <mxPoint x="272" y="470" as="sourcePoint"/>
                        <mxPoint x="271" y="450" as="targetPoint"/>
                    </mxGeometry>
                </mxCell>
                <mxCell id="vJc9xb9R0wfxGDk4Ak_M-8" value="" style="edgeStyle=none;html=1;" edge="1" parent="oZCVGq4v76825vz48XY7-1" source="vJc9xb9R0wfxGDk4Ak_M-5" target="kZIjGotmO9zieq3WL3FH-4">
                    <mxGeometry relative="1" as="geometry"/>
                </mxCell>
                <mxCell id="vJc9xb9R0wfxGDk4Ak_M-5" value="ASYNC RESPONSE" style="whiteSpace=wrap;html=1;fontSize=14;fillColor=#fad7ac;strokeColor=#b46504;fontColor=#000000;fontStyle=1;shadow=0;sketch=0;strokeWidth=2;" vertex="1" parent="oZCVGq4v76825vz48XY7-1">
                    <mxGeometry x="412" y="620" width="161.5" height="60" as="geometry"/>
                </mxCell>
                <mxCell id="vJc9xb9R0wfxGDk4Ak_M-6" value="" style="edgeStyle=none;html=1;fontSize=12;fontColor=#000000;strokeColor=#B46504;strokeWidth=2;exitX=0.495;exitY=0.975;exitDx=0;exitDy=0;exitPerimeter=0;entryX=0.5;entryY=0;entryDx=0;entryDy=0;" edge="1" parent="oZCVGq4v76825vz48XY7-1" source="kZIjGotmO9zieq3WL3FH-4" target="vJc9xb9R0wfxGDk4Ak_M-5">
                    <mxGeometry relative="1" as="geometry">
                        <mxPoint x="492" y="570" as="sourcePoint"/>
                        <mxPoint x="492" y="600" as="targetPoint"/>
                    </mxGeometry>
                </mxCell>
            </root>
        </mxGraphModel>
    </diagram>
</mxfile>